<?xml version="1.0" encoding="utf-8"?>
<!-- Generator: Adobe Illustrator 18.1.0, SVG Export Plug-In . SVG Version: 6.00 Build 0)  -->
<svg version="1.1" id="Layer_1" xmlns="http://www.w3.org/2000/svg" xmlns:xlink="http://www.w3.org/1999/xlink"
	 x="0px" y="0px" viewBox="0 0 500 500" enable-background="new 0 0 500 500" width="500" height="500" xml:space="preserve">
<g>
	<path fill="#DB1F30" d="M371.1,313.3c-35.7,4.4-81.8,41.3-87.2,79.3c-3.8,27.1,19,86.5-25.7,94.4c-25.8,4.6-65.7-18.3-43.3-83
		c20.4-59.1,96.6-100.3,155.7-100.1C386.4,304,406.5,309,371.1,313.3z"/>
	<path fill="#DB1F30" d="M371.1,186.3c-35.7-4.4-81.8-41-87.2-79c-3.8-27.1,19-86.5-25.7-94.4c-25.8-4.6-65.7,18.3-43.3,83
		c20.4,59.1,96.6,100.3,155.7,100.1C386.4,196,406.5,190.7,371.1,186.3z"/>
	<path fill="#DB1F30" d="M384.3,250.6c2.9,0.2,2.9,4.3,0,4.5c-51.3,2.9-128.6,8.4-156.1,12.9c-39.1,6.3-129.9,46.4-129.9-12.4
		c0-58.8,90.9-23.7,129.9-17.3C254,242.5,333.2,247.6,384.3,250.6z"/>
</g>
</svg>
