<?xml version="1.0" encoding="utf-8"?>
<!-- Generator: Adobe Illustrator 18.1.0, SVG Export Plug-In . SVG Version: 6.00 Build 0)  -->
<svg version="1.1" id="Layer_1" xmlns="http://www.w3.org/2000/svg" xmlns:xlink="http://www.w3.org/1999/xlink"
	 x="0px" y="0px" viewBox="0 0 500 500" enable-background="new 0 0 500 500" width="500" height="500" xml:space="preserve">
<g>
	<path fill="#DB1F30" d="M138.5,303.9c59.1-0.1,135.3,41.1,155.7,100.1c22.4,64.7-17.5,87.6-43.3,83c-44.7-7.9-21.9-67.3-25.7-94.4
		c-5.3-38-51.5-74.9-87.2-79.3C102.6,309,122.6,304,138.5,303.9z"/>
	<path fill="#DB1F30" d="M138.5,196.1c59.1,0.1,135.3-41.1,155.7-100.1c22.4-64.7-17.5-87.6-43.3-83c-44.7,7.9-21.9,67.3-25.7,94.4
		c-5.3,38-51.5,74.6-87.2,79C102.6,190.7,122.6,196,138.5,196.1z"/>
	<path fill="#DB1F30" d="M280.8,238.3c39.1-6.3,129.9-41.4,129.9,17.3c0,58.8-90.9,18.7-129.9,12.4c-27.5-4.5-104.8-10-156.1-12.9
		c-2.9-0.2-2.9-4.3,0-4.5C175.8,247.6,255.1,242.5,280.8,238.3z"/>
</g>
</svg>
